<svg width="40" height="33" viewBox="0 0 40 33" fill="none" xmlns="http://www.w3.org/2000/svg">
<rect x="7.59961" y="20.4297" width="2.20524" height="12.57" fill="#A4B0B5"/>
<rect x="10.9082" y="20.4297" width="0.452315" height="12.57" fill="#A4B0B5"/>
<rect x="12.2695" y="20.4297" width="0.982247" height="12.57" fill="#A4B0B5"/>
<rect x="13.7144" y="20.4297" width="1.86242" height="12.57" fill="#A4B0B5"/>
<rect x="16.4858" y="20.4297" width="1.86242" height="12.57" fill="#A4B0B5"/>
<rect x="18.8105" y="20.4297" width="0.789361" height="12.57" fill="#A4B0B5"/>
<rect x="20.0625" y="20.4297" width="0.297563" height="12.57" fill="#A4B0B5"/>
<rect x="20.8223" y="20.4297" width="1.37052" height="12.57" fill="#A4B0B5"/>
<rect x="22.6553" y="20.4297" width="0.565851" height="12.57" fill="#A4B0B5"/>
<rect x="23.6831" y="20.4297" width="1.54925" height="12.57" fill="#A4B0B5"/>
<rect x="25.8735" y="20.4297" width="0.379899" height="12.57" fill="#A4B0B5"/>
<rect x="26.7153" y="20.4297" width="0.379899" height="12.57" fill="#A4B0B5"/>
<rect x="27.5581" y="20.4297" width="2.18983" height="12.57" fill="#A4B0B5"/>
<rect x="30.21" y="20.4297" width="2.18983" height="12.57" fill="#A4B0B5"/>
<rect width="33.7342" height="13.6032" rx="6.80162" transform="matrix(-1 -8.72329e-08 -8.7613e-08 1 40 10.0293)" fill="#A1CCCF"/>
<ellipse cx="9.01412" cy="9.26855" rx="9.01412" ry="9.26855" transform="matrix(-1 -8.72329e-08 -8.7613e-08 1 31.9048 0.76123)" fill="#A1CCCF"/>
<ellipse cx="9.01412" cy="9.26855" rx="9.01412" ry="9.26855" transform="matrix(-1 -8.72329e-08 -8.7613e-08 1 19.937 7.5625)" fill="#A1CCCF"/>
<rect width="33.7342" height="13.6032" rx="6.80162" transform="matrix(-1 -8.72329e-08 -8.7613e-08 1 38.0908 10.0293)" fill="#BEEAFC"/>
<ellipse cx="9.01412" cy="9.26855" rx="9.01412" ry="9.26855" transform="matrix(-1 -8.72329e-08 -8.7613e-08 1 29.9951 0.76123)" fill="#BEEAFC"/>
<ellipse cx="9.01412" cy="9.26855" rx="9.01412" ry="9.26855" transform="matrix(-1 -8.72329e-08 -8.7613e-08 1 18.0278 7.5625)" fill="#BEEAFC"/>
</svg>
